<?xml version="1.0" encoding="utf-8"?>
<!-- Generator: Adobe Illustrator 19.0.0, SVG Export Plug-In . SVG Version: 6.00 Build 0)  -->
<svg version="1.1" id="Layer_1" xmlns="http://www.w3.org/2000/svg" xmlns:xlink="http://www.w3.org/1999/xlink" x="0px" y="0px"
	 viewBox="0 0 9.7 157" style="enable-background:new 0 0 9.7 157;" xml:space="preserve">
<style type="text/css">
	.st0{fill:#FFFFFF;}
	.st1{fill:#F68D2E;}
</style>
<path class="st0" d="M335.5,157h-133c-6.6,0-12-5.4-12-12V12c0-6.6,5.4-12,12-12h133c6.6,0,12,5.4,12,12v133
	C347.5,151.6,342.1,157,335.5,157z"/>
<path class="st1" d="M340.1,88.5c-0.4-3.1-1-6.2-1.7-9.2c-0.4-1.5-0.8-3-1.3-4.5c-3.3-10.1-8.8-18.9-16.3-26.5c-1-1-2.2-1.6-3.6-1.4
	c-1.7,0.2-2.9,1-3.5,2.6c-0.7,1.8-0.1,3.3,1.2,4.6c4.6,4.6,8.4,9.8,11.2,15.6c4.9,10,7,20.5,6,31.6c-0.7,8.3-3,16-6.9,23.4
	c-2.8,5.2-6.2,9.8-10.3,13.9c-1.1,1.2-1.8,2.5-1.4,4.2c0.4,1.6,1.3,2.6,2.9,3.1c1.8,0.5,3.2-0.1,4.4-1.4
	c7.7-7.9,13.1-16.6,16.3-26.4c2.3-6.9,3.4-14.2,3.6-22.1C340.4,93.7,340.4,91.1,340.1,88.5z M323.8,89.2
	c-1.6-11.4-6.5-21.2-14.6-29.4c-1.9-1.9-4.3-2.1-6.1-0.5c-1.8,1.7-1.7,4.2,0.1,6.2c1.1,1.2,2.3,2.4,3.3,3.7
	c8,10.2,10.8,21.7,8.9,34.4c-1.4,9.2-5.6,17.1-12.1,23.7c-1.9,2-2,4.5-0.2,6.2c1.8,1.7,4.2,1.5,6.2-0.5
	c9.9-10.1,14.8-22.3,15.1-37.4C324.3,94.1,324.1,91.6,323.8,89.2z M299.9,73.4c-0.9-1.1-1.8-2.1-2.9-3c-2.2-1.7-6-0.8-6.4,1.5
	c-0.3,2.1-0.3,4.1,1.5,5.9c4.5,4.5,7.2,10,7.6,16.3c0.6,8.5-2.4,15.7-8.3,21.9c-0.5,0.6-1,1.4-1.2,2.1c-0.5,1.8,0.5,3.7,2,4.5
	c1.8,1,3.7,0.7,5.3-0.9c7-7.1,10.3-15.7,10.6-25.6C308.2,88,305.1,79.6,299.9,73.4z"/>
<path class="st1" d="M287.8,54.6c0,3.3-1.3,5.9-4,7.7c-1.9,1.3-4.1,2.3-6.1,3.4c-1.3,0.7-2.6,1.5-3.8,2.4c-2.8,2-4,6.9-0.6,9.5
	c2.5,1.8,2.8,6.5,0.4,8.8c-2,2-4.2,3.8-6.2,5.8c-1,1-2.1,2-3,3.1c-1.3,1.6-1.4,3.5-0.2,5.1c1.1,1.5,2.5,2.7,3.7,4
	c1.1,1.1,2.3,2.1,3.2,3.3c1.6,2.2,1.3,4.6-0.7,6.4c-0.9,0.8-2,1.5-3,2.1c-1,0.6-2,1.1-2.9,1.8c-0.9,0.7-1.2,1.6-1.1,2.8
	c0.3,3.3,0.6,6.7,0.5,10.1c-0.1,5.6-4.9,10.8-11.4,12c-7.6,1.3-15.1,0.5-22.5-1.4c-2.1-0.5-4.3-0.9-6.4-1.4
	c-2.4-0.6-4.2,0.2-5.7,2.2c-2.1,2.8-4.3,5.5-6.4,8.2c-0.3,0.3-0.6,0.6-1,1.1h-2.4c-6.6,0-12-5.4-12-12V17.5c0-6.6,5.4-12,12-12h60.6
	c0.6,0,1,0.3,1.1,1.2c0.6,2.7,1.4,5.3,1.8,8c0.2,0.9-0.1,2.1-0.6,2.9c-1.1,1.8-2.5,3.4-3.7,5.2c-0.7,1-1.4,2.1-1.5,3.2
	c-0.1,0.8,0.5,1.9,1.1,2.6c2.7,2.8,5.6,5.5,8.3,8.3c2.9,3,5.9,5.9,8.6,9C286.1,48.3,287.7,51.1,287.8,54.6z"/>
<path class="st0" d="M633.5,157h-133c-6.6,0-12-5.4-12-12V12c0-6.6,5.4-12,12-12h133c6.6,0,12,5.4,12,12v133
	C645.5,151.6,640.1,157,633.5,157z"/>
<rect x="568.1" y="18.3" transform="matrix(-0.7552 -0.6555 0.6555 -0.7552 966.7588 519.0631)" class="st1" width="24.4" height="121.3"/>
<rect x="524.1" y="76.6" transform="matrix(-0.6555 0.7552 -0.7552 -0.6555 967.733 -231.8923)" class="st1" width="25.3" height="56.3"/>
<rect class="st0" width="9.7" height="157"/>
</svg>
